<?xml version="1.0" encoding="UTF-8" standalone="no"?><!DOCTYPE svg PUBLIC "-//W3C//DTD SVG 1.1//EN" "http://www.w3.org/Graphics/SVG/1.1/DTD/svg11.dtd"><svg width="100%" height="100%" viewBox="0 0 172 15" version="1.1" xmlns="http://www.w3.org/2000/svg" xmlns:xlink="http://www.w3.org/1999/xlink" xml:space="preserve" xmlns:serif="http://www.serif.com/" style="fill-rule:evenodd;clip-rule:evenodd;stroke-linecap:round;stroke-linejoin:round;stroke-miterlimit:1.5;"><g id="Divider"><g><path d="M66.686,2.822c1.542,-2.822 4.628,-2.822 6.17,-1.411c1.543,1.411 1.543,4.234 0,7.056c-1.079,2.117 -3.856,4.234 -6.17,5.645c-2.314,-1.411 -5.091,-3.528 -6.171,-5.645c-1.542,-2.822 -1.542,-5.645 0,-7.056c1.543,-1.411 4.628,-1.411 6.171,1.411Z" style="fill:#bd6c76;stroke:#bd6c76;stroke-width:0.54px;"/><path d="M85.005,2.822c1.542,-2.822 4.628,-2.822 6.17,-1.411c1.543,1.411 1.543,4.234 0,7.056c-1.079,2.117 -3.856,4.234 -6.17,5.645c-2.314,-1.411 -5.091,-3.528 -6.171,-5.645c-1.542,-2.822 -1.542,-5.645 0,-7.056c1.543,-1.411 4.628,-1.411 6.171,1.411Z" style="fill:#bd6c76;stroke:#bd6c76;stroke-width:0.54px;"/><path d="M105.314,2.822c1.543,-2.822 4.628,-2.822 6.171,-1.411c1.542,1.411 1.542,4.234 0,7.056c-1.08,2.117 -3.857,4.234 -6.171,5.645c-2.314,-1.411 -5.091,-3.528 -6.17,-5.645c-1.543,-2.822 -1.543,-5.645 0,-7.056c1.542,-1.411 4.627,-1.411 6.17,1.411Z" style="fill:#bd6c76;stroke:#bd6c76;stroke-width:0.54px;"/></g><path d="M1,7.298l50.56,0" style="fill:none;stroke:#bd6c76;stroke-width:1.5px;"/><path d="M120.44,7.298l50.56,0" style="fill:none;stroke:#bd6c76;stroke-width:1.5px;"/></g></svg>