<?xml version="1.0" encoding="UTF-8" standalone="no"?>
<!DOCTYPE svg PUBLIC "-//W3C//DTD SVG 1.1//EN" "http://www.w3.org/Graphics/SVG/1.1/DTD/svg11.dtd">
<svg width="100%" height="100%" viewBox="0 0 263 56" version="1.1" xmlns="http://www.w3.org/2000/svg" xmlns:xlink="http://www.w3.org/1999/xlink" xml:space="preserve" xmlns:serif="http://www.serif.com/" style="fill-rule:evenodd;clip-rule:evenodd;stroke-linejoin:round;stroke-miterlimit:2;">
    <g transform="matrix(1,0,0,1,-618.75,-6092.11)">
        <g id="Target-Logo" serif:id="Target Logo" transform="matrix(0.108175,0,0,0.108175,614.833,5984.82)">
            <path d="M638.178,1128.48L745.237,1128.48L745.237,1429.34L834.202,1429.34L834.202,1128.48L941.274,1128.48L941.274,1052.32L638.178,1052.32L638.178,1128.48ZM859.845,1429.34L953.337,1429.34L979.979,1353.19L1089.04,1353.19L1114.69,1429.34L1206.68,1429.34L1076.99,1052.33L979.719,1052.33L859.845,1429.34ZM1063.35,1284.67L998.423,1284.67L1031.06,1193.93L1063.35,1284.67ZM1214.23,1429.34L1300.17,1429.34L1300.17,1293.62L1362.01,1293.62C1375.06,1293.62 1390.21,1291.25 1397.95,1301.86C1405.7,1312.47 1404.97,1330.94 1404.7,1350.03C1404.4,1369.12 1404.49,1388.81 1408.83,1402.86C1413.13,1416.9 1420.89,1429.34 1432.13,1429.34L1509.78,1429.34C1500.86,1419.97 1494.54,1408.44 1491.43,1395.88C1488.37,1383.25 1488.8,1369.49 1489.36,1354.23C1489.92,1338.99 1490.58,1322.27 1488.8,1308.56C1487.05,1294.83 1482.9,1284.11 1476.1,1275.63C1469.23,1267.14 1459.97,1260.89 1449.53,1257.68C1465.92,1245.91 1479.67,1230.26 1488.04,1213.66C1496.38,1197.07 1499.31,1179.54 1500.42,1162.19C1501.54,1144.84 1500.8,1127.66 1495.33,1111.35C1489.83,1095.03 1479.59,1079.55 1465.82,1068.94C1451.9,1058.27 1434.87,1052.43 1417.33,1052.33L1214.21,1052.33L1214.21,1429.34L1214.23,1429.34ZM1399.99,1135.76C1410.33,1142.59 1416.63,1155.13 1416.48,1167.83C1416.16,1180.97 1409.61,1193.21 1398.85,1200.76C1388.06,1208.18 1373.57,1206.6 1360.09,1206.6L1300.11,1206.6L1300.11,1132.1L1363.39,1132.1C1376.02,1132.1 1389.63,1128.92 1399.99,1135.76ZM1545.44,1119.05C1532.53,1138.14 1523.01,1160.56 1517.83,1189.22C1512.67,1217.88 1511.82,1252.82 1516.48,1283.3C1521.11,1313.79 1531.25,1339.82 1543.56,1360C1555.87,1380.19 1570.36,1394.49 1586.14,1406.71C1601.93,1418.93 1618.95,1429.05 1638.16,1434.73C1657.52,1440.32 1677.85,1441.72 1697.8,1438.83C1716.98,1435.97 1734,1429.01 1747.27,1422.98C1760.51,1416.93 1770.02,1411.82 1778.93,1405.83L1794.03,1429.33L1849.84,1429.33L1849.71,1217.95L1689.86,1217.95L1689.86,1291.7L1764.82,1291.7C1767.73,1304.42 1765.98,1318.36 1759.52,1329.95C1753.06,1341.53 1741.87,1350.78 1726.01,1357.32C1710.14,1363.84 1689.62,1367.64 1669.64,1361.59C1649.67,1355.53 1630.27,1339.61 1617.48,1321.39C1604.72,1303.19 1598.56,1282.67 1595.85,1259.96C1593.16,1237.26 1593.93,1212.36 1599.36,1190.65C1604.8,1168.93 1614.91,1150.39 1627.61,1137.03C1640.32,1123.67 1655.63,1115.51 1674.9,1112.02C1694.18,1108.53 1717.41,1109.74 1732.89,1118.38C1748.39,1127.01 1756.15,1143.07 1760.61,1153.28C1765.07,1163.49 1766.27,1167.83 1766.41,1172.29L1846.71,1172.29C1845.52,1155.61 1840.78,1139.31 1831.21,1120.68C1821.61,1102.06 1807.22,1081.14 1786.75,1066.39C1766.28,1051.64 1739.76,1043.09 1715.18,1039.85C1692.56,1036.76 1669.55,1038.28 1647.54,1044.33C1627.17,1049.97 1609.05,1059.19 1591.85,1071.67C1574.65,1084.18 1558.35,1099.96 1545.44,1119.05ZM2146.9,1429.34L2146.9,1353.19L1969.72,1353.19L1969.72,1265.72L2122,1265.41L2122.03,1196.35L1969.72,1196.35L1969.72,1128.49L2146.9,1128.49L2146.9,1052.33L1881.08,1052.38L1881.51,1429.34L2146.9,1429.34ZM2159.73,1128.48L2266.82,1128.48L2266.82,1429.34L2355.78,1429.34L2355.78,1128.48L2462.84,1128.48L2462.84,1052.32L2159.73,1052.32L2159.73,1128.48ZM2398.7,1412.43L2403.59,1412.43L2403.59,1411.48C2402.88,1411.5 2401.89,1411.26 2401.46,1410.32L2397.74,1404.14C2401.28,1403.01 2402.71,1398.46 2399.04,1396.04C2397.44,1395.18 2396.07,1395.05 2394.02,1395L2384.98,1395L2384.98,1395.84C2385.99,1395.6 2387.82,1396.35 2387.43,1397.66C2387.35,1402.03 2387.64,1406.13 2387.22,1410.77C2386.46,1411.76 2386.08,1411.38 2385.07,1411.48L2385.07,1412.43L2393.91,1412.43L2393.91,1411.48C2392.95,1411.72 2391.07,1410.99 2391.46,1409.67L2391.46,1404.14L2393.91,1404.14L2398.7,1412.43ZM2391.45,1403.27L2391.45,1396.15C2393.6,1396.05 2396.95,1396.48 2396.95,1399.03C2397.13,1400.06 2396.95,1403.01 2394.42,1403.21C2393.53,1403.35 2392.43,1403.26 2391.45,1403.27ZM2393.58,1420.3C2396.69,1420.3 2400.06,1419.43 2403.28,1417.14C2411.18,1410.6 2412.35,1402.44 2407.03,1394.08C2400.46,1386.1 2392.28,1384.92 2383.8,1390.3C2375.85,1396.83 2374.68,1404.99 2380.02,1413.36C2383.82,1418.42 2388.79,1420.25 2393.58,1420.3ZM2393.58,1418.49C2390.84,1418.49 2387.83,1417.71 2384.96,1415.67C2377.89,1409.84 2376.83,1402.59 2381.62,1395.04C2387.41,1387.99 2394.72,1386.97 2402.19,1391.73C2409.26,1397.54 2410.32,1404.84 2405.56,1412.3C2402.19,1416.8 2397.75,1418.45 2393.58,1418.49Z" style="fill:rgb(248,248,248);"/>
            <path d="M339.492,1173.93C326.184,1166.25 310.814,1162.12 295.444,1162.12C280.074,1162.12 264.703,1166.25 251.396,1173.93C238.016,1181.68 226.894,1192.81 219.138,1206.18C211.433,1219.59 207.364,1234.77 207.335,1250.23C207.335,1265.62 211.459,1280.99 219.138,1294.3C226.829,1307.6 238.075,1318.86 251.396,1326.54C264.716,1334.22 280.074,1338.34 295.444,1338.34C310.814,1338.34 326.184,1334.23 339.492,1326.54C352.8,1318.85 364.058,1307.6 371.75,1294.3C379.456,1280.89 383.526,1265.7 383.553,1250.23C383.553,1234.86 379.441,1219.49 371.75,1206.18C363.993,1192.81 352.871,1181.68 339.492,1173.93Z" style="fill:rgb(202,52,50);"/>
            <path d="M518.849,1121.15C496.293,1082.07 463.257,1049.03 424.19,1026.48C385.122,1003.92 339.985,991.834 294.86,991.834C249.735,991.834 204.624,1003.92 165.543,1026.48C126.273,1049.24 93.631,1081.88 70.871,1121.15C48.302,1160.23 36.214,1205.36 36.214,1250.48C36.214,1295.61 48.302,1340.73 70.871,1379.81C93.624,1419.09 126.267,1451.73 165.543,1474.48C204.884,1497.12 249.472,1509.07 294.86,1509.14C339.985,1509.14 385.109,1497.05 424.19,1474.48C463.27,1451.93 496.293,1418.89 518.849,1379.81C541.405,1340.73 553.493,1295.61 553.493,1250.48C553.493,1205.36 541.405,1160.22 518.849,1121.15ZM443.062,1336.01C428.063,1361.9 406.541,1383.42 380.647,1398.42C354.704,1413.34 325.305,1421.21 295.379,1421.26C265.637,1421.26 235.896,1413.3 210.123,1398.42C184.364,1383.55 162.586,1361.77 147.709,1336.01C132.832,1310.25 124.868,1280.49 124.868,1250.75C124.868,1221 132.832,1191.24 147.709,1165.48C162.586,1139.72 184.364,1117.93 210.123,1103.07C236.06,1088.15 265.456,1080.27 295.379,1080.23C325.133,1080.23 354.875,1088.19 380.647,1103.07C406.539,1118.07 428.059,1139.59 443.062,1165.48C457.988,1191.42 465.868,1220.82 465.916,1250.75C465.86,1280.67 457.981,1310.07 443.062,1336.01Z" style="fill:rgb(202,52,50);"/>
        </g>
    </g>
</svg>
